<svg version="1.2" xmlns="http://www.w3.org/2000/svg" viewBox="0 0 200 200" width="200" height="200">
	<title>moas</title>
	<style>
		.s0 { fill: #4f9116 } 
		.s1 { fill: #086f02 } 
		.s2 { fill: #000000 } 
		.s3 { fill: #690372 } 
		.s4 { fill: #aa3aae } 
		.s5 { fill: #078e00 } 
		.s6 { fill: #86178e } 
		.s7 { fill: #00cd3a } 
		.s8 { fill: #fcba5a } 
		.s9 { fill: #163f00 } 
		.s10 { fill: #5ca41c } 
		.s11 { fill: #5ca51b } 
		.s12 { fill: #077001 } 
		.s13 { fill: #fab95a } 
		.s14 { fill: #00cc39 } 
		.s15 { fill: #660171 } 
		.s16 { fill: #077102 } 
		.s17 { fill: #660172 } 
		.s18 { fill: #a93aad } 
		.s19 { fill: #5ca31c } 
		.s20 { fill: #fbb95a } 
		.s21 { fill: #670172 } 
		.s22 { fill: #164000 } 
		.s23 { fill: #067101 } 
		.s24 { fill: #000100 } 
		.s25 { fill: #660272 } 
		.s26 { fill: #5da51c } 
		.s27 { fill: #660570 } 
		.s28 { fill: #a7793e } 
		.s29 { fill: #a5783d } 
		.s30 { fill: #a97b3e } 
		.s31 { fill: #416c16 } 
		.s32 { fill: #a7783f } 
		.s33 { fill: #9f6e40 } 
		.s34 { fill: #b68641 } 
		.s35 { fill: #1d6718 } 
		.s36 { fill: #a0733b } 
		.s37 { fill: #466f1a } 
		.s38 { fill: #b98942 } 
		.s39 { fill: #9e6d40 } 
		.s40 { fill: #b38440 } 
		.s41 { fill: #3f6e14 } 
		.s42 { fill: #0d690e } 
	</style>
	<path class="s0" d="m0 0c66 0 132 0 200 0 0 66 0 132 0 200-66 0-132 0-200 0 0-66 0-132 0-200z"/>
	<path class="s1" d="m0 0c22.3 0 44.6 0 67.6 0q0 0.2 0 0.3-0.3 0.1-0.6 0.2c-5.4 1.5-8.6 5-11.8 9.3q0.3 0 0.6 0c3.5 0.2 5.9 2.4 8.5 4.5q1.2 0.9 2.4 1.8 0.3 0.3 0.7 0.5c2.6 1.6 4.9 2 7.9 1.9q0.5 0 1 0c3.6 0 6-1.2 8.6-3.6 2.8-2.5 5.2-2.9 8.9-2.9q0.5 0 1 0c2.3 0 3.6 0.3 5.5 1.7 0.8 1.1 0.8 1.8 0.7 3.1-1.4 0.9-2.4 1.1-4 1.1-2.1 0.2-3.8 0.4-5.4 1.8-0.2 0.3-0.2 0.3-0.5 0.6q0.4 0.1 0.7 0.1c3.5 0.9 6.4 3.8 8.3 6.7 2 3.2 2.7 6.4 1.9 10.1-1 2.8-2.5 5.4-4.5 7.6q-0.4 0-0.7 0 0 1.8 0 3.8 0.9-0.1 1.8-0.1c7.9 0 17.6 1.7 23.5 7.2 1.6 1.8 2.7 3.9 3.9 5.9q0.3 0.4 0.6 0.8c1.9 3.4 1.7 7.4 1.8 11.2q0 0.6 0 1.1c0 4-1 8.6-3.9 11.6-0.2 0.2-0.2 0.2-0.5 0.5-1.1 1.2-1 2.6-1.1 4.2-0.2 3-1.3 5.7-3.5 7.7-1.1 0.8-2.1 1.4-3.2 1.9q1.2 0.3 2.4 0.5 0.4 0 0.8 0.1 2.1 0.4 4.3 0.7c3.6 0.5 7.2 1.3 10.6 2.9q0.6 0.2 1.2 0.5c4 1.7 7.4 3.7 10.8 6.4q0.4 0.3 0.8 0.6c4.3 3.6 7.5 8.9 8.8 14.4 0.1 0.4 0.1 0.4 0.2 0.7 0.4 2 0.6 3.9 0.7 5.9q0.1 0.3 0.1 0.6c0.5 4.2 0.5 4.2-0.8 6-0.8 0.9-1.7 1.7-2.6 2.5-0.7 0.6-1.3 1.4-1.9 2.1-12.4 13.8-31.2 23.3-49.1 27.2q-0.4 0.1-0.8 0.2-0.4 0.1-0.8 0.2-0.4 0.1-0.7 0.2c-5.6 1.1-11.2 1.5-16.9 1.5q-1.3 0-2.6 0c-3.6 0-7-0.4-10.5-1.1q-1-0.2-1.9-0.3c-3.7-0.6-7.2-1.5-10.7-2.7q-0.4-0.1-0.8-0.2c-4.6-1.6-7.4-5.4-10.1-9.3q-0.5-0.7-1-1.4-0.8-1.1-1.6-2.3c-0.2-0.3-0.2-0.3-0.4-0.6-4.1-6.5-4.4-15.9-2.9-23.1 1.3-5.1 4.1-9.8 7.5-13.8q0.2-0.3 0.5-0.6 0.7-0.8 1.4-1.6 0.3 0 0.6 0 0-0.3 0-0.6c5.8-5.4 14-10.1 21.8-11.6 0.9-0.2 1.8-0.5 2.6-0.8-0.3-0.1-0.3-0.1-0.7-0.2-5-1.4-10.7-3.8-13.5-8.4-0.4-0.7-0.4-1.2-0.4-2.1q0-0.4 0-0.8c0-0.2 0-0.2 0-0.6q-0.3-0.1-0.7-0.2c-3.8-1.7-6.5-5.6-8.2-9.3-1.4-4.7-1-10 1.2-14.3 3.2-5.5 8.1-10 13.9-12.7 0.6-0.2 0.6-0.2 0.8-0.9q-0.5-0.1-1.1-0.1c-1.4-0.2-2.6-0.6-3.9-1.2q-0.3-0.1-0.7-0.3c-2.7-1.3-5.2-3.2-6.3-6q-0.1-0.7-0.2-1.4c0-1.2 0-1.2-0.8-1.8q-0.5-0.3-0.9-0.6c-2.6-3-3.4-5.9-3.3-9.8 0.3-3 1.9-5.5 4.1-7.6 2.3-1.9 5.3-3.2 8-4.2q-1.2-0.9-2.4-1.7-0.3-0.3-0.7-0.5c-2.2-1.6-2.2-1.6-4.8-2.4-1.8 0.8-3 2.6-4.2 4.2-1 1.2-2.1 1.6-3.6 1.8-1.1-0.2-1.1-0.2-1.7-0.6-0.3-0.5-0.3-0.5-0.3-1.1-1.6 0.8-3 1.7-4.3 2.9-0.3 0.2-0.3 0.2-0.5 0.5q-0.8 0.6-1.6 1.3-0.3 0.3-0.7 0.6-0.9 0.8-1.8 1.6-0.4 0.3-0.8 0.7c-3 2.7-5.8 5.4-8.4 8.6q-1.1 1.4-2.2 2.7c-12.3 14.8-20.6 34.6-21.8 53.8-0.2 3.9-0.7 7.2-2.4 10.7q-0.1 0-0.3 0c0-34.4 0-68.9 0-104.4z"/>
	<path class="s2" d="m135.2 0c21.4 0 42.8 0 64.8 0 0 66 0 132 0 200-66 0-132 0-200 0 0-29.3 0-58.7 0-88.9q0.9 0.8 1.9 1.6 0.4 0.2 0.7 0.3c0.6 0.3 0.6 0.3 0.8 0.9q0 0.4 0.1 0.8 0 0.4 0.1 0.8c0 0.4 0 0.4 0.1 0.8q0.1 1 0.2 1.9 0 0.4 0.1 0.9c0.3 2.2 0.9 4.4 1.4 6.6 0.1 0.3 0.1 0.3 0.2 0.7 3.2 13.5 10.2 26.7 19.5 37.1 0.3 0.4 0.3 0.4 0.7 0.8 3.2 3.7 6.7 7.3 10.7 10.3 0.3 0.2 0.3 0.2 0.6 0.5 8.1 6.2 16.9 11 26.4 14.4q0.4 0.2 0.7 0.3c5.7 2.1 11.6 3.3 17.5 4.3q0.4 0 0.9 0.1c4.3 0.7 8.5 0.8 12.8 0.8 0.4 0 0.4 0 0.8 0 3.8 0 7.6-0.2 11.4-0.7q0.8-0.1 1.6-0.2 5.3-0.7 10.5-2 0.4-0.1 0.7-0.2c15.2-3.9 29.9-11.7 41.4-22.4q1-0.8 2-1.7c2.6-2.3 5.1-4.8 7.3-7.5q0.2-0.2 0.4-0.5c17.6-21 26.3-47.7 23.9-75.1-0.3-4-0.3-4-1.4-7.9q-0.2-0.8-0.3-1.5c-2.4-14.6-9.6-28.4-18.8-39.7-0.2-0.3-0.2-0.3-0.4-0.6-3.8-4.6-8.1-9.1-12.9-12.8-0.5-0.4-0.5-0.4-1-0.7-3.6-2.9-7.3-5.3-11.3-7.6q-0.4-0.3-0.9-0.5c-1.4-0.8-2.9-1.6-4.4-2.2-1.5-0.8-1.8-1.7-2.3-3.2q-0.2-0.6-0.4-1.2c-1-3-3.6-4.9-6.1-6.8z"/>
	<path class="s3" d="m70.4 0c0.4-0.1 0.4-0.1 0.8-0.1q1.4 0 2.8 0 1 0 2 0 3.2 0 6.5 0 1.1 0 2.2 0 4.7 0 9.4 0 6.7 0 13.4 0 4.7-0.1 9.4-0.1 2.8 0 5.6 0 2.6 0 5.3 0 1 0 1.9 0 1.4 0 2.7 0 0.4 0 0.7 0c2.4 0 4.2 1.2 5.8 2.8q0.3 0.3 0.5 0.5c1.7 2.1 2.6 4.3 3.5 6.8q0.1 0.5 0.3 1c2.3 7.4 3.8 15 4.4 22.7 0.1 0.5 0.1 0.5 0.1 0.9 1.1 12.6 1.6 25.3 1.9 38q0.1 1.3 0.1 2.7 0 1 0 1.9c0 3.5 0 3.5 1.1 6.7q-0.1-0.5-0.2-1c-0.1-1.1-0.2-2.2-0.2-3.4q0-0.6 0-1.2 0-0.4 0-0.7 0-1.1 0-2.1-0.1-3-0.1-6c0-5.8-0.2-11.6-0.7-17.4q-0.2-2.3-0.3-4.6c-0.6-13.1-0.6-13.1-3-26.1-0.3-1-0.4-2.1-0.6-3.2 3 1.6 5.6 3.5 8.3 5.7q0.2 0.2 0.5 0.5c4.1 3.3 7.7 6.8 10.8 11q0.6 0.8 1.2 1.6c3.5 4.6 6.4 10 8.3 15.5 0.4 1.1 0.7 2.1 1.2 3.2 7.2 16.6 4.2 38.5-2 54.9q-0.8 1.8-1.6 3.5-0.6 1.1-1.1 2.3c-3.3 7.1-7.4 13.6-12.3 19.9q-0.2 0.3-0.4 0.6c-1.1 1.3-1.1 1.3-1.8 1.6q0-0.3 0-0.7c-0.6-9.7-2.2-18.3-9.7-25.1-3.7-3.2-7.8-5.5-12.3-7.3q-0.7-0.3-1.4-0.6c-3.3-1.5-7.1-2.1-10.7-2.6q-2.1-0.3-4.2-0.7-0.4-0.1-0.8-0.1-0.9-0.2-1.8-0.3c0.6-0.7 1.1-1.1 1.8-1.6 2.4-1.6 4.1-3.8 4.7-6.6 0.2-0.8 0.2-0.8 0.2-1.7 0-2.5 0.4-3.7 2.1-5.5 2.9-3.5 3.3-7.5 3.3-11.8q0-0.6 0-1.2c-0.1-6.9-2-12.5-6.8-17.5-3.5-2.9-7.7-4-12-4.9q-0.5-0.2-1.1-0.4c-2.1-0.5-4.3-0.6-6.5-0.8q-0.7-0.1-1.4-0.1-1.7-0.2-3.4-0.3 0-1 0-1.9c0-0.5 0-0.5 0-1 0-0.9 0-0.9 0.7-1.8q0.4-0.4 0.9-0.7c2.9-3.7 3.8-7.2 3.5-11.8-0.3-1-0.7-1.9-1.3-2.8q-0.2-0.4-0.4-0.8-0.7-1-1.5-2.1-0.2-0.3-0.4-0.6c-1.7-2.2-4.5-3.8-7.2-4.8 0.4-1.1 0.9-1.3 2-1.9 1.5-0.8 3.2-0.7 4.9-0.8 1-0.1 1.7-0.4 2.6-0.8 0.2-1.3 0.2-2-0.7-3.1-1.9-1.5-3.7-1.4-6-1.4q-0.5 0-1 0c-4.3 0-7 1.9-10.1 4.7-2.9 2.5-6.9 1.9-10.5 1.8-2.9-0.2-4.9-1.7-7-3.5-1-0.8-2.1-1.6-3.2-2.4q-0.3-0.2-0.5-0.4c-2.3-1.6-2.3-1.6-4.9-2.4q-0.4-0.1-0.8-0.2c-0.3 0-0.3 0-0.7-0.1 1.9-4.1 5.8-7.4 9.9-9.1 1.7-0.7 3.4-0.7 5.3-0.7z"/>
	<path class="s4" d="m55.1 16.5c2.9 0.9 5.4 3 7.8 4.8-1 0.6-2 1-3.1 1.4-3.8 1.6-6.7 3.9-8.5 7.7-1 2.6-0.9 5.8 0.1 8.5 0.8 1.7 2 3.6 3.6 4.8 0.7 0.6 0.8 1 0.9 2 0.4 2.2 1.5 3.7 3.3 5.2 2.5 1.7 5.5 2.7 8.4 3.4-0.3 0.9-0.5 1.2-1.4 1.7-0.5 0.2-0.5 0.2-1 0.4-2 1-3.5 2.1-5.2 3.6q-0.4 0.3-0.8 0.7c-1.8 1.5-3.3 3.1-4.6 5q-0.3 0.4-0.5 0.8c-2.1 3.1-2.8 6.2-2.8 9.9q0 0.4 0 0.8c0 4.6 2.1 8.4 5.1 11.7 0.8 0.7 1.7 1.2 2.6 1.7 1.6 1 1.6 1 1.9 1.8q0 0.7 0 1.5c0.1 1.8 1.4 3.1 2.7 4.2 3.5 2.7 7.7 4.7 12 5.4-0.4 0.6-0.4 0.6-0.9 0.9q-2.1 0.6-4.2 1.1c-1.8 0.5-3.4 1-5.1 1.8-0.3 0.1-0.3 0.1-0.7 0.3-4.4 2-8.2 4.2-11.9 7.4-0.6 0.5-1.2 0.9-2 1.2q0 0.3 0 0.6-0.5 0.6-1.1 1.1c-6 5.9-9.3 13.7-9.5 22.1 0.1 3.9 0.9 7.6 2 11.3q0.1 0.4 0.2 0.8c0.5 1.8 1.3 3.2 2.4 4.7q0.3 0.6 0.7 1.2c2.2 3.4 4.6 6.5 7.5 9.3q0.5 0.5 1 1c-2.3-0.7-4.3-1.6-6.4-2.7-0.4-0.3-0.4-0.3-0.9-0.5-4.4-2.3-8.4-5-12.1-8.3q-0.4-0.3-0.8-0.7c-3.6-3.2-6.8-6.5-9.7-10.4q-0.2-0.3-0.4-0.5c-1.7-2.2-3.1-4.5-4.5-6.9-0.2-0.4-0.2-0.4-0.4-0.8-0.7-1.2-1.3-2.4-1.3-3.8 0.3-1.1 0.3-1.1 0.6-1.6 2.2-4.7 3.2-9.8 4.1-14.8 0.7-4.1 1.6-8.3 2.9-12.2-6.5-0.3-11.1 1.5-15.9 5.8-1.9 1.7-3.1 2.5-5.6 2.5-1.2-0.1-2-0.6-3-1.3-1.3-2.1-0.9-5.3-0.6-7.7 0.2-0.8 0.5-1.6 0.9-2.4 1.1-2.4 1.3-4.7 1.4-7.2 0.3-3.7 0.8-7.4 1.5-11 0.1-0.4 0.1-0.4 0.2-0.9 3.2-17.4 11.9-33.9 23.6-47q0.2-0.3 0.5-0.5c4.2-4.8 8.9-9 13.9-13.1q0.6-0.5 1.3-1c0.5-0.3 0.5-0.3 1.5-0.3 0.2 0.3 0.2 0.3 0.4 0.6 0.5 0.7 0.5 0.7 1.5 0.8 2.4-0.3 3.7-1.6 5.1-3.4 0.3-0.4 0.3-0.4 0.6-0.8 0.8-1 1.4-1.7 2.7-1.7z"/>
	<path class="s5" d="m116.2 108.9q0.6 0.1 1.2 0.2 1.8 0.3 3.6 0.7 0.6 0.2 1.2 0.3c6.3 1.3 13.3 5.4 16.9 10.8 2.2 3.5 2.9 6.6 2.9 10.8q0 0.5 0 1c0 2.4-0.3 4.6-0.7 7q-0.1 0.5-0.2 1c-0.9 5-5.1 9.8-9.1 12.7-5.9 3.7-12.7 5.6-19.5 7q-0.3 0.1-0.7 0.2c-1.6 0.3-3.2 0.5-4.8 0.6-0.7 0-0.7 0-1.3 0.4-4.2 0.7-8.6 0.7-12.9 0.7q-1.4 0-2.7 0c-4 0.1-7.8-0.3-11.7-1q-0.5-0.1-1-0.2c-1.8-0.3-3.4-0.8-5-1.4q-0.6-0.2-1.1-0.4c-3.3-1.1-6.2-2.6-9.1-4.4q-0.5-0.3-1.1-0.6c-3.6-2.3-5.6-5.2-7.8-8.9q-0.2-0.4-0.5-0.8c-1.3-2.5-1.1-6.3-0.5-8.9 3.4-9.3 11.8-16.1 20.5-20.2 3.4-1.5 6.8-2.7 10.4-3.9q0.6-0.2 1.3-0.4c9.5-3.4 21.7-4.2 31.7-2.3z"/>
	<path class="s6" d="m135.2 2.5c3.1 1.5 4.4 5.6 5.5 8.6q0.2 0.4 0.3 0.8c1.4 3.9 2.1 8 2.7 12.1q0 0.4 0.1 0.7 0.3 2.6 0.6 5.1 0.1 0.7 0.2 1.3c0.6 4.3 0.9 8.6 0.8 13q0 1.4 0 2.9-0.1 1.4-0.1 2.7 0 0.7 0 1.4c-0.1 2.4-0.1 4.5-1.2 6.7q-0.1 0.4-0.3 0.8c-0.7 1.9-1.6 3.4-2.8 4.9q-0.3 0.4-0.6 0.8c-1.1 0.7-2.1 0.6-3.3 0.4-1.5-0.4-2.2-1.4-3.1-2.5q-0.7-0.6-1.3-1.1-0.4-0.3-0.7-0.6-0.7-0.6-1.4-1.1c-1-0.9-1.8-1.9-2.7-2.9q1.9 2.9 4 5.7 2.6 3.4 5 7 1.7 2.6 3.6 5.1 3 4.1 5.9 8.4 1.4 2 2.8 4 0.3 0.4 0.6 0.8 2.5 3.6 5 7.1 0.7 1 1.4 2 3.2 4.5 6.4 9 1.4 1.9 2.8 3.8 0.2 0.4 0.5 0.7 0.7 1 1.4 2 0.2 0.3 0.4 0.6c0.8 1 1.5 2 2.1 3.1q0.2 0.3 0.4 0.6c0.4 1.1 0.2 1.8-0.3 2.9-7.8 16.5-7.8 16.5-13.1 19.1q0-0.3 0-0.7c-0.6-9.7-2.2-18.3-9.7-25.1-3.7-3.2-7.8-5.5-12.3-7.3q-0.7-0.3-1.4-0.6c-3.3-1.5-7.1-2.1-10.7-2.6q-2.1-0.3-4.2-0.7c-0.4-0.1-0.4-0.1-0.8-0.1q-0.9-0.2-1.8-0.3c0.6-0.7 1.1-1.1 1.8-1.6 2.4-1.6 4.1-3.8 4.7-6.6 0.2-0.8 0.2-0.8 0.2-1.7 0-2.5 0.4-3.7 2.1-5.5 2.9-3.5 3.3-7.5 3.3-11.8q0-0.6 0-1.2c-0.1-6.9-2-12.5-6.8-17.5-3.5-2.9-7.7-4-12-4.9q-0.5-0.2-1.1-0.4c-2.1-0.5-4.3-0.6-6.5-0.8q-0.7-0.1-1.4-0.1-1.7-0.2-3.4-0.3 0-1 0-1.9 0-0.5 0-1c0-0.9 0-0.9 0.7-1.8q0.4-0.4 0.9-0.7c2.9-3.7 3.8-7.2 3.5-11.8-0.3-1-0.7-1.9-1.3-2.8q-0.2-0.4-0.4-0.8-0.7-1-1.5-2.1-0.2-0.3-0.4-0.6c-1.2-1.6-2.9-2.6-4.7-3.6-0.7-0.4-1.2-0.9-1.9-1.5q2.7-0.1 5.3 0 0.9 0 1.8 0c1.5 0.1 2.3 0.4 3.3 1.5q1 1.1 1.9 2.3c1.1 1.4 2.4 2.5 3.6 3.7 2.4 2.4 4.2 4.9 6 7.8 1 1.5 1.8 2.6 3.5 3.1 2.9 0.2 4.9-0.3 7-2.2 0.8-0.7 0.8-0.7 1.3-1.6q0.2-0.3 0.4-0.5c1-1.7 1.6-3.5 2.1-5.3 0.1-0.4 0.1-0.4 0.2-0.8 0.7-3 0.8-5.9 0.8-9q0-0.4 0-0.9c0-1.6-0.1-3.1-0.3-4.7-0.1-1.2-0.1-2.4-0.1-3.6q0-0.3-0.1-0.7c0-2.3 0.8-3.9 2.3-5.6 1.4-1.2 2.7-1.2 4.5-1z"/>
	<path class="s2" d="m0 0c22.3 0 44.6 0 67.6 0q0 0.2 0 0.3-0.3 0.1-0.6 0.2c-5.4 1.5-8.6 5-11.8 9.3q0.3 0 0.6 0c3.5 0.2 5.9 2.4 8.5 4.5q1.2 0.9 2.4 1.8 0.3 0.3 0.7 0.5c2.6 1.6 4.9 2 7.9 1.9q0.5 0 1 0c3.6 0 6-1.2 8.6-3.6 2.8-2.5 5.2-2.9 8.9-2.9q0.5 0 1 0c2.3 0 3.6 0.3 5.5 1.7 0.8 1.1 0.8 1.8 0.7 3.1-1.4 0.9-2.4 1.1-4 1.1-3.1 0.2-4.9 1.3-7.4 3q-1.5 1-3 1.9-0.4 0.3-0.8 0.5c-2.9 1.4-5.5 1.6-8.7 1.6q-0.6 0-1.2 0c-3.1-0.1-5.9-0.4-8.9-1.4q-0.5-0.2-1-0.3c-2.3-0.8-4.2-2.2-6.1-3.7-1.6-1.3-3.2-2.6-5.3-2.8-1.8 0.8-3 2.6-4.2 4.2-1 1.2-2.1 1.6-3.6 1.8-1.1-0.2-1.1-0.2-1.7-0.6-0.3-0.5-0.3-0.5-0.3-1.1-1.6 0.8-3 1.7-4.3 2.9-0.3 0.2-0.3 0.2-0.5 0.5q-0.8 0.6-1.6 1.3-0.3 0.3-0.7 0.6-0.9 0.8-1.8 1.6-0.4 0.3-0.8 0.7c-3 2.7-5.8 5.4-8.4 8.6q-1.1 1.4-2.2 2.7c-12.3 14.8-20.6 34.6-21.8 53.8-0.2 3.9-0.7 7.2-2.4 10.7q-0.1 0-0.3 0c0-34.4 0-68.9 0-104.4z"/>
	<path class="s7" d="m114.7 103.1q0.5 0 1 0.1c2.2 0.2 4.3 0.7 6.5 1.2q0.9 0.3 1.9 0.5c3.2 0.8 6.2 1.6 9.2 3 0.5 0.3 0.5 0.3 1.1 0.5 7.9 3.6 14.9 8.7 18.1 17 1.4 3.7 1.6 7.4 1.5 11.3q0.1 0.6 0.1 1.2c0 0.5 0 0.5 0 1.1q0 0.5 0 1c-0.2 1.9-1.1 3-2.4 4.4q-0.2 0.2-0.4 0.5c-1.5 1.5-3 2.9-4.6 4.3q-0.5 0.4-0.9 0.8c-8.7 7.6-18.9 13.5-29.6 17.6q-0.4 0.2-0.7 0.3c-4.2 1.7-8.5 2.8-13 3.8q-0.4 0.1-0.8 0.2c-6.1 1.4-12.1 1.9-18.4 1.9q-1.3 0-2.6 0c-4.6 0-9.3-0.2-13.5-2.3q-0.3-0.2-0.7-0.4c-4.2-2.1-8.2-4.7-11.9-7.7-0.7-0.6-0.7-0.6-1.6-1.2q0-0.3 0-0.6-0.3-0.1-0.5-0.2c-4.1-2.4-6.5-9.1-7.8-13.4-0.1-0.6-0.1-0.6-0.3-1.2-0.4-1.7-0.4-1.7-0.9-3.4-1.5-6 0.3-11.6 3.2-16.7 7.4-12.1 20.4-18.6 33.8-21.9 1.4-0.3 2.7-0.5 4.1-0.6 0.8-0.1 1.5-0.2 2.2-0.4 8.9-1.8 18.9-1.3 27.9-0.7zm-30.9 8.3q-1.2 0.4-2.3 0.7c-11.3 3.6-22.3 10-27.9 20.8-1.1 2.3-1.6 4-1.6 6.6q0 0.3 0 0.7c0 4.3 2.9 8.5 5.8 11.5 2.1 2.1 4.7 3.4 7.3 4.8q0.3 0.2 0.5 0.3c2.4 1.3 4.6 2.2 7.1 2.9 1 0.3 1 0.3 1.7 0.6 1 0.4 2 0.6 3 0.8 0.6 0.1 0.6 0.1 1.1 0.2q0.8 0.2 1.5 0.3c0.5 0.1 0.5 0.1 1 0.2 3.3 0.5 6.5 0.5 9.9 0.5q1.3 0 2.7 0c6.5 0.3 6.5 0.3 12.7-1q0.7-0.1 1.3-0.2c6.3-0.8 12.3-2.2 18.1-4.6q0.4-0.2 0.8-0.3c6-2.5 11.1-6.7 13.8-12.7 1.3-3.9 1.7-7.6 1.7-11.7q0-0.6 0-1.1c0-4.7-1.7-8.8-4.9-12.2-2-2-4.2-3.7-6.6-5.2-0.5-0.3-0.5-0.3-1-0.6-4.8-2.6-10.5-3.6-15.9-4-1.2-0.1-1.2-0.1-1.8-0.3-0.9-0.2-1.8-0.2-2.8-0.2-0.3 0-0.3 0-0.7 0q-1 0-2 0-0.3 0-0.7 0c-7.3 0-14.8 0.8-21.8 3.2z"/>
	<path class="s8" d="m145.7 18.1c3 1.6 5.6 3.5 8.3 5.7q0.2 0.2 0.5 0.5c4.1 3.3 7.7 6.8 10.8 11q0.6 0.8 1.2 1.6c3.5 4.6 6.4 10 8.3 15.5 0.4 1.1 0.7 2.1 1.2 3.2 7.3 16.7 4.1 38.4-2 54.9q-0.6 1.4-1.3 2.8-0.3 0-0.6 0c-0.4-0.4-0.4-0.4-0.8-1q-0.2-0.3-0.5-0.7c-0.2-0.3-0.2-0.3-0.5-0.7q-0.5-0.7-1-1.5-0.3-0.4-0.6-0.7c-3.8-5.6-7.8-11-11.9-16.3q-1.7-2.2-3.4-4.5-0.3-0.3-0.5-0.6c-2.4-3.2-2.5-6-2.5-9.9q0-1.1 0-2.1-0.1-2.3-0.1-4.5c0-6.3-0.1-12.5-0.7-18.7q-0.2-2.4-0.3-4.7c-0.6-13.1-0.6-13.1-3-26.1-0.3-1-0.4-2.1-0.6-3.2z"/>
	<path class="s5" d="m111.3 58.1c2.4 1.9 4.3 3.7 5.8 6.3q0.2 0.3 0.4 0.6c1 2.6 0.4 6.2-0.6 8.7-1.1 2.3-2.5 4.1-4.5 5.8-0.7 0.5-0.7 0.5-1.3 1.1-2.9 2.8-6 4-9.8 4.7q-1 0.2-2 0.3c-3.6 0.7-7.2 0.9-11 0.9q-1.4 0-2.8 0c-3.5 0-6.8-0.3-10.3-1.1q-0.5-0.1-1-0.2c-4.6-1-8.4-3-11.2-6.7-1.5-2.4-1.5-5.5-0.9-8.3 2-5.6 7.1-10.1 12.4-12.7 10.2-4.7 27-6.3 36.8 0.6z"/>
	<path class="s7" d="m94.5 50.4c0.4 0 0.4 0 0.8 0 9.2 0 18.2 1.2 25.2 7.8 2.4 2.7 3.8 5.7 4.6 9.1 0.1 0.4 0.1 0.4 0.2 0.9 0.9 4.5 1.1 10.2-1.3 14.2-4.9 6.6-12.1 10.7-19.8 12.8q-0.4 0.1-0.7 0.2c-4 1-8.2 0.9-12.3 0.9q-0.5 0-1 0c-7.6 0-15.5-0.5-22.6-3.6q-0.7-0.3-1.5-0.6c-3.1-1.2-5.6-3.1-8-5.4q-0.3-0.3-0.6-0.7c-3.4-3.5-4.3-8.3-4.3-13 0.4-3.5 2.7-6.1 4.9-8.6q0.3-0.3 0.6-0.6c1.7-1.9 3.8-3.3 5.8-4.7q0.7-0.5 1.4-1c4.2-2.8 9-4.5 13.8-5.8q0.8-0.3 1.6-0.5c4.3-1.3 8.7-1.4 13.2-1.4zm-15.8 5.5q-0.3 0.1-0.6 0.2c-6.4 1.9-11.9 6.5-15.2 12.2-1.4 2.4-1.4 5.6-0.8 8.3 1.1 3 3.7 5.4 6.6 6.8 6 2.5 12 3.1 18.4 3.1 0.5 0 0.5 0 1 0 7.5 0 16.8-0.2 22.7-5.5q0.5-0.5 1.1-1.1c0.5-0.5 0.5-0.5 1.4-1.3 2.6-2.1 4.2-5.2 4.6-8.4 0.2-2.8 0.1-5.1-1.7-7.3q-0.3-0.4-0.6-0.8c-1.6-1.9-3.4-3.3-5.4-4.6q-0.4-0.3-0.7-0.5c-3.9-2.1-9-2.8-13.3-3q-0.5-0.1-1-0.1c-5.8-0.2-11 0.3-16.5 2z"/>
	<path class="s9" d="m127 114.6q0.6 0.3 1.2 0.6c5.5 2.6 8.7 6 10.9 11.7 0.7 1.9 0.7 3.7 0.7 5.7 0 0.4 0 0.4 0 0.9 0 2.9-0.7 5.3-2 7.9-0.3 0.5-0.3 0.5-0.5 1-0.5 0.8-0.5 0.8-1.1 1.1-0.1-0.4-0.1-0.4-0.2-0.9-1.5-5.5-4.2-10.1-9.3-13.1-3.5-1.9-7.2-3.4-11-4.5q-0.9-0.3-1.7-0.5c-12.2-3.9-26.4-1-37.6 4.5-5.5 2.9-10.5 6.9-12.6 12.9-0.1 0.9-0.1 1.8-0.1 2.7q0 0.4 0 0.7c0 1.6 0.3 2.5 1.1 3.9 0.1 0.9 0.1 0.9 0.2 1.7 0 0.4 0 0.4 0 0.9q0.1 0.3 0.1 0.6c-1.6-0.8-2.9-1.7-4.2-2.9q-0.2-0.3-0.5-0.5c-1.3-1.3-2.4-2.6-3.3-4.2q-0.2-0.4-0.4-0.7c-1.3-2.9-1.3-6.5-0.3-9.4q0.3-0.9 0.7-1.7c0.2-0.4 0.2-0.4 0.4-0.8 3.9-7.9 12.8-13 20.7-16q1.2-0.4 2.5-0.7c0.9-0.3 1.7-0.6 2.5-1 1.2-0.5 2.6-0.8 3.9-1.1q0.4-0.2 0.9-0.3 2.9-0.8 5.9-1.5 0.3 0 0.7-0.1c10.2-2.2 23.1-1.8 32.4 3.1z"/>
	<path class="s10" d="m44.8 21q0.2 0.3 0.4 0.6c0.5 0.7 0.5 0.7 1.5 0.9q0.5 0 0.9 0-0.2 0.9-0.4 1.7-0.1 0.4-0.3 0.9c-0.2 0.9-0.2 0.9-0.6 1.8-0.4 1.5-0.5 3-0.7 4.6-0.6 5-2 9.3-4.1 13.9q-0.3 0.5-0.5 1c-1.2 2.7-2.5 5.2-4.3 7.5-0.8 1-1.4 2.1-2.1 3.1-1.8 2.8-3.7 5.4-6 7.8q-0.6 0.6-1.1 1.3c-1.9 2.1-4 4.1-6.2 6q-2.8 2.5-5.1 5.3-0.7 0.8-1.4 1.5c-4.1 4.7-7.6 9.9-10.1 15.6-0.6 1.5-1.4 2.9-2.2 4.2q-0.1 0-0.3 0c0.1-5 0.7-9.9 1.6-14.9 0.1-0.4 0.1-0.4 0.2-0.9 3.2-17.4 11.9-33.9 23.6-47q0.2-0.3 0.5-0.5c4.2-4.8 8.9-9 13.9-13.1q0.6-0.5 1.3-1c0.5-0.3 0.5-0.3 1.5-0.3z"/>
	<path class="s11" d="m142.9 10.5c6.1 1.3 12.5 6.6 17.4 10.5q0.4 0.3 0.9 0.6c5.1 4.1 10 8.8 14 14q0.5 0.6 1 1.2c8.3 10.5 17.1 25.5 18 39.3 0.1 0.8 0.1 0.8 0.4 1.9 0.4 1.4 0.5 2.9 0.5 4.4q0 0.4 0.1 0.8 0 0.9 0 1.9-2.7-0.3-5.5-0.5-1-0.1-1.9-0.2-1.4-0.2-2.8-0.3c-0.4 0-0.4 0-0.8-0.1q-2.3-0.2-4.5-0.5 0-0.4 0-0.8c-0.2-11.2-1.5-22.2-6-32.5q-0.2-0.3-0.3-0.6c-5.7-13.3-15.4-23.4-27.4-31.2 0.2 1.4 0.6 2.7 0.9 4.1 2.1 8.8 2.3 18 2.8 27.1q0.1 0.3 0.1 0.6 0.1 1.6 0.2 3.2c0.1 2.2 0.1 2.2 0.3 4.5 0.3 1.9 0.2 3.9 0.3 5.8q0 1.1 0 2.2 0 2.7 0 5.4 0.1 2.2 0.1 4.5 0 1.1 0 2.1c0 2.2 0.1 4.4 0.4 6.5-2.1-2.2-1.6-5.5-1.7-8.4q0-1 0-1.9-0.1-0.7-0.1-1.4c-0.2-8.4-0.5-16.7-1-25q0-1-0.1-2-0.4-6.9-1-13.8c-0.1-0.6-0.1-0.6-0.2-1.2-0.3-3.9-1.1-7.6-1.9-11.3q-0.2-0.8-0.4-1.6c-0.4-1.8-0.8-3.5-1.4-5.2-0.4-1.2-0.4-1.2-0.4-2.1z"/>
	<path class="s3" d="m56.2 16.8c2.4 1.2 4.5 2.9 6.7 4.5-0.9 0.5-1.6 0.9-2.5 1.3q-0.4 0.2-0.9 0.4c-1 0.2-1.4 0-2.4-0.5q-0.2-0.1-0.5-0.3c-1.1-0.5-2.1-0.6-3.3-0.3-0.8 0.6-1.3 1.4-1.9 2.2q-0.2 0.4-0.5 0.8c-1.3 2.2-1.9 4.1-2.4 6.6-1.5 7.4-5 15.4-9.2 21.6-0.7 1-1.2 2-1.8 3q-1.4 2.5-2.9 4.8-0.1 0.3-0.3 0.6-0.5 0.7-1 1.4-0.3 0-0.6 0-0.1 0.2-0.2 0.5c-0.6 1-1.4 1.9-2.2 2.9q-0.3 0.3-0.5 0.6-1.7 1.9-3.5 3.6-0.8 0.8-1.6 1.8c-1.1 1.3-2.3 2.5-3.6 3.7-4.5 4.4-8.1 9-11.4 14.4q-0.8 1.2-1.6 2.4c-3.9 5.8-3.9 5.8-5.2 12.6q0.6 0 1.3-0.1 0.4 0 0.7 0c1.7-0.4 2.5-1.5 3.3-2.9q0.5-0.9 1-1.7c1.8-3 3.7-5.4 6.4-7.7q0.4-0.3 0.8-0.7 1.3-1.1 2.6-2.1 0.4-0.3 0.7-0.5c5.1-4.1 5.1-4.1 7.9-5.6q0.5-0.3 1.1-0.6c0.8-0.3 0.8-0.3 2.1-0.3q0.1-0.3 0.2-0.7 0.4-1.4 0.7-2.8c0.2-0.4 0.2-0.4 0.3-0.8 0.6-2.1 1.3-4.2 2.3-6.2q0.3-0.2 0.6-0.3c-0.2 4.5-0.7 8.9-1.6 13.3q-0.4 1.8-0.7 3.6-0.8 3.9-1.5 7.8-0.1 0.8-0.3 1.5c-0.5 2.6-1 5.1-1.7 7.6-0.3 1.2-0.5 2.4-0.7 3.7-0.7 4.8-2 9.5-3.4 14.2q-0.8 2.6-1.5 5.2c-0.4 1.7-0.9 3.3-1.6 4.8-0.5 1.3-0.9 2.6-1.3 3.9-0.3 0.7-0.3 0.7-0.9 1q-0.6-0.9-1.1-1.9-0.2-0.3-0.4-0.6c-0.7-1.2-0.8-1.8-0.4-3.2q0.2-0.8 0.5-1.5 0.1-0.5 0.2-0.9 0.2-0.5 0.3-1 0.2-0.4 0.3-0.9 0.2-0.4 0.3-0.9c0.2-0.4 0.2-0.4 0.3-0.9q0.3-0.8 0.6-1.5c0.7-2.1 1.1-4.1 1.4-6.2 0.9-4.8 1.8-9.7 3.4-14.4-6.5-0.3-11.1 1.5-15.9 5.8-1.9 1.7-3.1 2.5-5.6 2.5-1.2-0.1-2-0.6-3-1.3-1.3-2.1-0.8-5.3-0.6-7.7 0.4-1.8 1.1-3.4 1.9-5q0.1-0.3 0.3-0.6 0.9-2 1.9-3.8 0.5-1.1 1.1-2.2c3.8-7.6 9.2-13.9 15.1-20.1q0.4-0.4 0.8-0.8c0.5-0.5 0.5-0.5 1.1-0.5q0.2-0.4 0.3-0.9c0.5-0.5 0.5-0.5 1.2-1 4.6-4 8.3-8.8 11.6-14 0.6-1 1.2-1.9 2-2.8 0.9-1.1 1.4-2.1 2-3.3q0.2-0.3 0.4-0.7c1.1-2.3 2.1-4.7 3.2-7.1q0.2-0.5 0.4-0.9c1.1-2.6 1.5-5.3 1.8-8.1 0.3-2.6 0.6-5.2 1.5-7.8q0.1-0.3 0.3-0.6c0.5-1.4 1-2 2.3-2.6 1.4-1.3 2.6-2.7 3.8-4.1 1.1-1.2 1.7-1.1 3.2-0.7z"/>
	<path class="s12" d="m116.2 108.9q0.6 0.1 1.2 0.2 1.8 0.3 3.6 0.7 0.6 0.2 1.2 0.3c6.3 1.3 13.3 5.4 16.9 10.8 2.2 3.5 2.9 6.6 2.9 10.8q0 0.5 0 1c0 2.4-0.3 4.6-0.7 7q-0.1 0.5-0.2 1c-0.9 5-5.1 9.8-9.1 12.7-5.9 3.7-12.7 5.6-19.5 7q-0.3 0.1-0.7 0.2c-1.6 0.3-3.2 0.5-4.8 0.6-0.7 0-0.7 0-1.3 0.4-4.2 0.7-8.6 0.7-12.9 0.7q-1.4 0-2.7 0c-4 0.1-7.8-0.3-11.7-1q-0.5-0.1-1-0.2c-1.8-0.3-3.4-0.8-5-1.4q-0.6-0.2-1.1-0.4c-3.3-1.1-6.2-2.6-9.1-4.4q-0.5-0.3-1.1-0.6c-3.6-2.3-5.6-5.2-7.8-8.9q-0.2-0.4-0.5-0.8c-1.3-2.5-1.1-6.3-0.5-8.9 3.4-9.3 11.8-16.1 20.5-20.2 3.4-1.5 6.8-2.7 10.4-3.9q0.6-0.2 1.3-0.4c9.5-3.4 21.7-4.2 31.7-2.3zm-23.6 3.1q-0.5 0.1-1.1 0.2c-4 1-8 2-11.8 3.7q-1 0.3-2 0.6c-7.8 2.8-15.8 7.8-19.9 15.2q-0.2 0.4-0.4 0.8c-1.7 3.1-2.2 6.7-1.2 10.2 0.7 1.9 1.8 3.6 3.2 5.2q0.2 0.3 0.5 0.6c1.4 1.6 3.1 2.7 4.9 3.9 0.3 0.2 0.3 0.2 0.7 0.5 2.8 1.9 6 3.2 9.1 4.6q0.5 0.2 1 0.4c8.6 3.3 21.8 2.9 30.7 0.8q0.2-0.1 0.4-0.3 1-0.2 2.1-0.4c3-0.5 5.8-1.3 8.6-2.2q0.9-0.3 1.7-0.6c5.4-1.6 10.4-4 14.4-7.9 0.3-0.3 0.3-0.3 0.5-0.5 1-1 1.6-2 2.2-3.3q0.3-0.3 0.6-0.6c0.9-0.9 1.2-1.8 1.7-2.9q0.2-0.6 0.5-1.1c1.4-3.9 1.3-9.4-0.3-13.2-0.1-0.4-0.1-0.4-0.3-0.8-3.3-7-9.7-9.8-16.5-12.5-4.1-1.4-8.2-1.7-12.5-1.7q-1.2 0-2.4 0c-4.9 0-9.6 0.1-14.4 1.3z"/>
	<path class="s5" d="m87 22.2c0.1 0.3 0.1 0.3 0.3 0.7 0.6 0.2 0.6 0.2 1.3 0.4 2.8 0.8 4.8 2.4 6.3 5 0.8 1.6 1.3 3.2 1 5-0.7 1.9-1.6 3.5-3.2 4.8q-0.2 0.2-0.5 0.4c-2.3 2.2-5.3 3.5-8.4 4.4q-0.3 0-0.6 0.1c-2.2 0.6-4.4 0.6-6.7 0.6q-0.6 0-1.2 0c-2 0-3.6-0.1-5.5-0.7q-0.4-0.1-0.8-0.2c-4-1-6.7-2.5-9-5.9-0.7-2.4-0.5-5 0.6-7.3 1.5-2.4 3.8-4.8 6.5-5.8 1.1-0.3 1.8 0 2.9 0.2 2.3 0.6 4.6 0.7 7 0.7q0.6 0 1.2 0c3.3 0 6-0.6 8.8-2.4z"/>
	<path class="s13" d="m106.9 7.5q0.4 0 0.8 0c4.9 0.1 9.6 0.3 14.5 1.4 0.6 0.1 0.6 0.1 1.2 0.3q1.5 0.3 2.9 0.6 0.1 0.5 0.1 0.9 0 0.6 0.1 1.1 0 0.6 0.1 1.1c0 0.9 0.2 1.6 0.4 2.3 0.4 6.6 0.2 14.1-4.1 19.4-1.6 1.4-2.8 2.2-4.9 2.1-1.1-0.3-1.4-0.7-1.9-1.7q-0.3-0.4-0.5-0.9c-0.7-1.1-1.4-2.1-2.2-3q-0.3-0.3-0.5-0.5c-1.6-1.9-3.4-3.7-5.1-5.4q-0.8-0.8-1.6-1.6c-1.7-1.7-3.3-3.3-5.1-4.7-0.5-0.5-1-1.1-1.4-1.8q0.5-0.1 0.9-0.3c0.2-1.3 0.2-2-0.7-3.1-1-0.8-1.8-1.3-3.1-1.3-1.9-0.1-2.8-0.4-4.1-1.8q-0.7-0.7-1.3-1.4c3.9-2.5 11-1.7 15.5-1.7z"/>
	<path class="s9" d="m94.8 57q0.5 0 1 0c4.9 0 9.3 0.1 13.7 2.4q0.4 0.2 0.8 0.4c2.7 1.5 4.6 3.4 5.7 6.3 0.4 1.9 0.6 4-0.2 5.8-0.3 0.6-0.7 1.2-1.2 1.8-1.1-0.4-1.1-0.6-1.7-1.5-2.5-3.3-6.2-4.6-10-5.5q-0.4-0.1-0.7-0.2c-2.5-0.6-5-0.6-7.5-0.6-0.3 0-0.3 0-0.7 0-3.3 0-6.4 0.2-9.6 1.1q-0.3 0.1-0.6 0.1c-5.2 1.4-11.3 3.8-14.2 8.6-0.7 1.5-1 3-1.3 4.6-1.7-0.7-3-1.9-3.9-3.5-0.3-0.7-0.4-1.4-0.6-2.2q-0.1-0.3-0.1-0.6c-0.4-3.1 2-6.5 3.7-8.9 4.6-5.4 11.3-7.3 18.1-7.9 3.1-0.2 6.2-0.2 9.3-0.2z"/>
	<path class="s4" d="m134.6 2.5c3.4 6.1 3.5 12.7 3.7 19.4 0 0.5 0 0.5 0 1q0 0.4 0.1 0.8c0 0.8 0.2 1.5 0.3 2.3 0.4 6.4 0.1 13.1-4.2 18.2-1.6 1.7-3.1 2.5-5.4 2.6-1 0-1.6 0-2.4-0.5-2.4-2.5-2.7-5.8-2.7-9 0.2-1.3 0.5-1.8 1.4-2.7 1.3-1.8 1.9-3.7 2.5-5.8q0.1-0.4 0.2-0.8c0.7-3 0.8-5.9 0.8-9q0-0.4 0-0.9c0-1.6-0.1-3.1-0.3-4.7-0.1-1.2-0.1-2.4-0.1-3.6q0-0.3-0.1-0.7c0-2.3 0.8-3.9 2.3-5.6 1.3-1.1 2.2-1 3.9-1z"/>
	<path class="s14" d="m89.5 21.3c4.2 1.1 7.6 4.4 9.8 8.1 1.3 2.6 0.9 5.7 0.1 8.4-1.5 4-4.3 6.2-8 8-8.9 3.5-20.6 3.2-29.5-0.1-1.9-0.9-3.6-2-5.4-3.2q0-0.3 0-0.6c-0.3-0.1-0.3-0.1-0.5-0.2-2-1.2-3.1-3.7-3.6-5.8-0.4-2.8-0.1-4.8 1.6-7 2.3-3 5.6-6.2 9.5-6.8 1.4 0.2 2.8 0.8 4.1 1.4q-1.3 1-2.6 1.8c-2.3 1.5-4.1 3.5-4.9 6.2-0.3 2.5-0.1 4.4 1 6.6 2.5 3 6.3 4.1 10 4.6 0.6 0.2 0.6 0.2 1 0.5 4.6 0.3 9.3 0.4 13.6-1.3 0.5-0.2 0.5-0.2 1-0.4 2-0.7 3.5-1.6 5.1-2.9 0.6-0.5 0.6-0.5 1.5-0.8 0.4-0.6 0.4-0.6 0.7-1.3 0.2-0.4 0.2-0.4 0.4-0.7 1.1-2.1 1.6-3.5 0.9-5.8-1.2-3.4-3.3-5-6.5-6.5q-0.7-0.3-1.5-0.6c0.4-1.3 0.8-1.7 2.2-1.6z"/>
	<path class="s13" d="m45.4 30.8c-0.2 5.4-1.7 9.7-3.9 14.6q-0.3 0.5-0.5 1c-1.2 2.7-2.5 5.2-4.3 7.5-0.8 1-1.4 2.1-2.1 3.1-1.8 2.8-3.7 5.4-6 7.8q-0.6 0.6-1.1 1.3c-1.9 2.1-4 4.1-6.2 6-3.1 2.8-5.7 5.9-8.3 9.2-0.4-1.1-0.2-1.4 0.1-2.5q0.2-0.4 0.3-0.9 0.2-0.5 0.3-1c0.2-0.4 0.2-0.4 0.3-0.9 0.6-1.7 1.2-3.3 1.9-4.9 0.4-0.8 0.6-1.6 0.9-2.4 3.7-9.7 9.6-18.7 16.5-26.5q0.4-0.4 0.8-0.9c1.8-1.9 3.6-3.8 5.5-5.7q0.3-0.3 0.7-0.7c4.1-4.1 4.1-4.1 5.1-4.1z"/>
	<path class="s15" d="m127.9 66.7q0.2 0 0.4 0 0 0.3 0 0.5c-0.1 3.8-0.1 3.8 1.3 7 0.9 0.5 1.8 1 2.8 1.4 2.3 1.6 4.5 4.2 5.3 7.1 0.5 3.3 0.3 6.3-1.2 9.4q-0.1 0.3-0.3 0.6c-1.3 3.1-3.9 6.2-6.8 8-0.9 0.6-1.2 1.1-1.5 2.2q-0.2-0.1-0.5-0.2c-2.1-0.4-4.2-0.7-6.4-1q-0.9-0.1-1.9-0.2-0.4-0.1-0.8-0.1-1.2-0.2-2.4-0.4c0.6-0.7 1.1-1.1 1.8-1.6 2.4-1.6 4.1-3.8 4.7-6.6 0.2-0.8 0.2-0.8 0.2-1.7 0-2.5 0.4-3.7 2.1-5.5 2.4-2.9 3.3-6.6 3.3-10.3 0-0.3 0-0.3 0-0.7q0-1.2 0-2.4 0-0.8 0-1.6 0-2-0.1-3.9z"/>
	<path class="s16" d="m111.3 58.1c2.4 1.9 4.3 3.7 5.8 6.3q0.2 0.3 0.4 0.6c1 2.6 0.4 6.2-0.6 8.7-1.1 2.3-2.5 4.1-4.5 5.8-0.7 0.5-0.7 0.5-1.3 1.1-2.9 2.8-6 4-9.8 4.7q-1 0.2-2 0.3c-3.6 0.7-7.2 0.9-11 0.9q-1.4 0-2.8 0c-3.5 0-6.8-0.3-10.3-1.1q-0.5-0.1-1-0.2c-4.6-1-8.4-3-11.2-6.7-1.5-2.4-1.5-5.5-0.9-8.3 2-5.6 7.1-10.1 12.4-12.7 10.2-4.7 27-6.3 36.8 0.6zm-43.3 6.3c-1.9 2.3-4.3 5.8-4.4 8.9 0.3 3 1.7 5.2 4 7 0.6 0.4 0.6 0.4 1.3 0.7 0.4 0.1 0.4 0.1 0.7 0.3 4.6 2.1 9.7 2.9 14.7 2.9 0.4 0 0.4 0 0.9 0q0.9 0 1.8 0 1.4 0 2.7 0c8.3 0.1 16.4-1.5 22.5-7.4 1.4-1.4 1.4-1.4 1.8-3.1q0.3-0.1 0.5-0.2c1.1-0.7 1.3-1.2 1.7-2.4 0.4-3.3-0.2-6-2.3-8.6-1.3-1.4-2.7-2.3-4.4-3.1q-0.3-0.2-0.7-0.4c-4.4-2.2-9.2-2-14-2-0.6 0-0.6 0-1.1 0-9.2 0-18.9 0.4-25.7 7.4z"/>
	<path class="s17" d="m52.4 83.5q1.1 1.4 2.2 2.8 0.2 0.4 0.5 0.7 0.6 0.8 1.2 1.6c0.7 0.9 1.6 1.4 2.7 2 1.6 0.9 1.6 0.9 1.9 1.8q0 0.7 0 1.5c0.1 1.8 1.4 3.1 2.7 4.2 3.5 2.7 7.7 4.7 12 5.4-0.4 0.6-0.4 0.6-0.9 0.9q-2.1 0.6-4.2 1.1c-1.8 0.5-3.4 1.1-5.1 1.8q-0.6 0.3-1.2 0.5-1.6 0.7-3.2 1.4 0-0.3 0-0.6-0.5-0.2-0.9-0.3c-5-1.8-9.1-5.7-11.4-10.4-1-2.7-0.9-6.5 0.1-9.2 0.7-1.5 1.6-2.7 2.6-3.9q0.5-0.7 1-1.3z"/>
	<path class="s18" d="m76.2 3.8c2.8 2 5.6 4.2 6.2 7.8-0.4 2.3-1.6 4-3.4 5.5q-0.3 0.2-0.6 0.4c-0.3 0.2-0.3 0.2-0.5 0.4-2 1.2-4.2 1.1-6.5 0.8-2.4-0.6-4.2-1.8-6.1-3.4-2.4-2-5-3.9-7.8-5.1 1.4-3.5 5.9-6 9.1-7.5 3.4-1.2 6.5-0.8 9.6 1.1z"/>
	<path class="s19" d="m114.9 2.2q1 0.2 2.1 0.3c3.4 0.5 6.9 1 10.3 1.9-0.1 0.5-0.1 0.5-0.3 0.9-0.3 1-0.5 1.9-0.5 2.9q-0.1 0.5-0.1 0.9c0 0.4 0 0.4-0.1 0.7-2.3-0.1-4.5-0.5-6.7-1.1-4.1-1-8.5-0.8-12.7-0.8-0.4 0-0.4 0-0.9 0-4.3 0-8.6 0.2-12.9 0.9-1.4 0.2-2.3 0.3-3.4-0.6q-0.3-0.2-0.6-0.5c-0.3-0.2-0.3-0.2-0.6-0.5q-0.7-0.4-1.3-0.9-0.3-0.2-0.6-0.5c-1-0.7-2-1.4-3.1-2 0.9-0.5 1.6-0.7 2.6-0.9q0.3 0 0.7-0.1c0.4 0 0.4 0 0.8-0.1q0.4-0.1 0.9-0.1 0.9-0.1 1.8-0.3 0.8-0.1 1.5-0.2c7.5-1 15.6-1 23.1 0.1z"/>
	<path class="s20" d="m24.4 106.7c-0.1 2.2-0.5 4.2-1 6.4-0.4 1.8-0.9 3.7-1.2 5.6-0.7 3.6-1.6 7.1-2.7 10.6q-0.2 0.6-0.4 1.2-0.2 0.5-0.3 1.1-0.2 0.4-0.4 0.9c-0.3 0.8-0.6 1.2-1.3 1.8-7.3-18-7.3-18-6-22.2 2-2.8 6.3-4.6 9.5-5.3 1.3-0.2 2.6-0.2 3.8-0.1z"/>
	<path class="s6" d="m30.8 82.5c0.2 0.6 0.2 0.6 0.3 1.3q-0.3 0.6-0.6 1.3-0.2 0.7-0.4 1.4-0.1 0.4-0.2 0.8-0.1 0.5-0.2 0.9c-0.1 0.4-0.1 0.4-0.2 0.9q-0.9 3.7-1.6 7.4c-1.1 0.4-2.1 0.7-3.3 0.8-4.1 0.3-9.1 2.1-12.1 5.1-0.6 0.8-1.2 1.6-1.7 2.5-1.1 1.5-2.5 2.5-4.3 2.9-2.1 0.3-2.1 0.3-3.1-0.3-0.7-0.7-0.8-1.2-0.9-2.1q0.5 0 1 0.1c1.4-0.1 2.4-0.5 3.5-1.4 0.5-0.7 1-1.3 1.4-2.1q0.4-0.6 0.7-1.2 0.2-0.3 0.4-0.6c2.5-4.1 5.8-7.1 9.5-10q0.4-0.3 0.7-0.5c5.1-4.1 5.1-4.1 7.9-5.6q0.5-0.3 1.1-0.6c0.8-0.3 0.8-0.3 2.1-0.3q0-0.3 0-0.7z"/>
	<path class="s21" d="m84 3.9q1.2 0.9 2.4 1.6c2.8 1.8 5.7 3.7 7.9 6.2q0 0.2 0 0.4c-0.4 0-0.4 0-0.8 0-4.6 0.3-7.3 1.8-10.7 4.9-2.2 1.8-4.2 1.8-6.9 1.7 0.6-0.6 1.2-0.9 2-1.3 2-1.1 3.2-2.5 4-4.7 0.3-1.9-0.3-3.1-1.3-4.6-2.1-2.8-5.3-5.2-8.8-5.8-5.6-0.2-9.4 3-13.4 6.6q-0.6 0.6-1.3 1.3c-0.9-0.2-0.9-0.2-1.9-0.4 1.9-4.1 5.8-7.4 9.9-9.1 6.1-2.3 13.8-0.4 18.9 3.2z"/>
	<path class="s22" d="m88.1 24.2q0.4 0.3 0.8 0.6 0.4 0.2 0.8 0.4c1.7 1 3.1 2.2 4 4 0.2 1.5 0.2 2.5-0.7 3.8q-0.2-0.4-0.5-0.8c-1.1-1.6-2.7-3.2-4.6-3.9-0.8-0.2-0.8-0.2-1.6-0.2q-0.5 0-0.9 0c-1 0.2-1.2 0.3-2 0.9-1.3 1-2.3 1.1-3.9 1q-0.4 0-0.8 0-1.2 0-2.5 0-1.2 0-2.4 0-0.8 0.1-1.5 0c-2.2 0.1-4.1 0.5-5.9 1.7-1.8 1.9-1.8 3.9-2 6.4-1.5-0.7-2.2-1.7-2.8-3.2-0.5-2.5 0.3-4.5 1.6-6.6 1.4-1.7 3.2-2.8 5.1-3.9q0.3 0 0.6 0 0-0.3 0-0.6 0.3 0.1 0.6 0.1c2.5 0.6 4.9 0.7 7.5 0.7 0.6 0 0.6 0 1.2 0 2.3 0 4.2-0.3 6.3-1.2 1.4-0.4 2.4 0.2 3.6 0.8z"/>
	<path class="s23" d="m87 22.2c0.1 0.3 0.1 0.3 0.3 0.7 0.6 0.2 0.6 0.2 1.3 0.4 2.8 0.8 4.8 2.4 6.3 5 0.8 1.6 1.3 3.2 1 5-0.7 1.9-1.6 3.5-3.2 4.8q-0.2 0.2-0.5 0.4c-2.3 2.2-5.3 3.5-8.4 4.4q-0.3 0-0.6 0.1c-2.2 0.6-4.4 0.6-6.7 0.6q-0.6 0-1.2 0c-2 0-3.6-0.1-5.5-0.7q-0.4-0.1-0.8-0.2c-4-1-6.7-2.5-9-5.9-0.7-2.4-0.5-5 0.6-7.3 1.7-2.7 4.2-5.2 7.3-6q0.5 0.1 1 0.3 0 0.3 0 0.6c-0.6 0.5-0.6 0.5-1.5 0.9-2.8 1.7-4.5 3.3-5.5 6.4-0.3 2.1 0 3.5 1.2 5.3 0.4 0.5 0.4 0.5 1.3 1.1q0-1.9 0-3.8 0.2 0 0.4 0 0 0.4 0 0.8c0 0.5 0 0.5 0.1 1q0 0.5 0 1.1c0.2 1 0.3 1.2 1.1 1.8 5.3 2.6 12.2 3 17.7 1.2 3.5-1.3 7.2-2.9 9-6.2 0.6-1.6 1-3.1 0.6-4.8-1.2-2.5-3.2-3.6-5.7-4.8q-0.6-0.3-1.2-0.6-0.3-0.1-0.7-0.3 0.6-0.6 1.3-1.3z"/>
	<path class="s24" d="m74 0c18.9 0 37.9 0 57.4 0-1.6 1.3-1.6 1.3-2.2 1.3-0.1 0.2-0.1 0.2-0.2 0.5-0.5 0.9-1.1 1.8-1.7 2.6-2.1-0.1-4.2-0.4-6.2-0.9-5.9-1.2-11.7-1.7-17.6-1.7q-0.4 0-0.8 0c-5.7 0-11.5 0.5-17.2 1.6-1 0.1-1.9 0.2-3 0.1q-0.2-0.2-0.5-0.4c-1-0.8-2.2-1.1-3.4-1.6q-0.3-0.1-0.7-0.2c-1.3-0.5-2.6-0.8-3.9-1q0-0.1 0-0.3z"/>
	<path class="s25" d="m51.4 39.7c1 0.9 1.8 2 2.7 3.1 0.5 0.8 0.5 0.8 1.5 1.3 0.1 0.7 0.1 0.7 0.3 1.5 0.4 2.3 1.5 3.8 3.3 5.3 2.5 1.7 5.5 2.7 8.4 3.4-0.3 0.9-0.6 1.2-1.4 1.8q-0.5 0.2-1 0.4c-1.2 0.5-2 0.9-3 1.8-1.2 0.6-1.6 0.3-2.9-0.1-4.4-1.9-7.2-4.6-9.1-9-0.5-1.2-0.4-2.4-0.5-3.7q0-0.4 0-0.8c0-1.8 0.4-3.1 1.4-4.7q0.2-0.2 0.3-0.3z"/>
	<path class="s26" d="m25.1 105.1q-0.2 1.1-0.3 2.2c-0.2-0.3-0.2-0.3-0.4-0.6-4.8 0.4-8.8 1.8-12.6 4.9-0.8 1-0.5 2.4-0.4 3.6q0.4 1.8 0.8 3.5c0.2 0.9 0.2 1.4-0.1 2.3q-0.5 0-1 0c-1.6 0.5-3.2 1.2-4.8 1.9-0.6 0.3-0.6 0.3-1.5 0.3q0-0.7 0-1.3-0.4 0-0.7 0c-0.5-2.9-1.1-5.6-0.9-8.6q0.3 0 0.6 0c2.1-0.3 3.2-0.7 4.7-2.1 4.4-4.2 10.3-7.8 16.6-6.1z"/>
	<path class="s15" d="m102.2 31.7c2.6 2.2 5.1 4.3 5.5 7.8q0.1 1.1 0.1 2.2 0 0.4 0 0.8c-0.1 2-0.4 3.5-1.5 5.1q-0.4 0.8-0.9 1.6c-2.8-0.2-5.7-0.4-8.6-0.6 0-3.8 0-3.8 0.7-4.7q0.4-0.4 0.9-0.7c2.2-2.9 3.5-5.7 3.7-9.3q0-0.6 0.1-1.2c0-0.5 0-0.5 0-1z"/>
	<path class="s27" d="m41 148.9c0.6 0.3 0.6 0.3 0.9 1.4q0.2 0.6 0.4 1.3c0.6 2 1.3 3.6 2.5 5.2q0.3 0.6 0.7 1.1c2.2 3.4 4.6 6.6 7.5 9.4q0.5 0.5 1 1c-2.3-0.7-4.3-1.6-6.4-2.7q-0.4-0.3-0.9-0.5c-2.8-1.5-5.5-3.2-8.1-5q-0.6-0.5-1.3-0.9c-0.5-0.5-0.5-0.5-0.6-1.6 0.5-3.1 2.5-6.2 4.3-8.7z"/>
	<path class="s6" d="m73.3 2.5c6.8 0.3 13.2 4.9 17.8 9.6q-0.3 0-0.6 0.1c-3.1 0.8-5.4 2.7-7.8 4.9-2.1 1.8-4.2 1.7-6.8 1.6 0.6-0.6 1.2-0.9 2-1.3 2-1.1 3.2-2.5 4-4.7 0.3-1.9-0.3-3.1-1.3-4.6-1.9-2.6-4.4-3.9-7.3-5.2q0-0.2 0-0.4z"/>
	<path class="s28" d="m144.8 17.8q0.4 0.1 0.9 0.3c4.2 9.1 3.5 21.6 4 31.5q0.1 0.3 0.1 0.6 0.1 1.6 0.2 3.2c0.1 2.2 0.1 2.2 0.3 4.5 0.3 1.9 0.2 3.9 0.3 5.8q0 1.1 0 2.2 0 2.7 0 5.4 0.1 2.2 0.1 4.5 0 1.1 0 2.1c0 2.2 0.1 4.4 0.4 6.5-2.1-2.2-1.6-5.5-1.7-8.4q0-1 0-1.9-0.1-0.7-0.1-1.4c-0.2-8.4-0.5-16.7-1-25q0-1-0.1-2-0.4-6.9-1-13.8c-0.1-0.6-0.1-0.6-0.2-1.2-0.3-3.6-1-7.1-1.8-10.6q-0.2-1.1-0.4-2.3z"/>
	<path class="s29" d="m25.1 105.1q-0.2 1.1-0.3 2.2c-0.2-0.3-0.2-0.3-0.4-0.6-4.6 0.4-9.8 1.6-13 5.4-0.2 0.8-0.2 0.8-0.3 1.6q-0.1 0-0.3 0c-0.3-1.5-0.5-2.7-0.3-4.2 1-1.1 2.1-1.8 3.5-2.5q0.3-0.2 0.6-0.4c3.1-1.8 7.1-2.4 10.5-1.5z"/>
	<path class="s30" d="m149.5 51.1q0.2 0 0.3 0c0.6 6.3 0.8 12.6 0.8 19q0.1 3 0.1 5.9 0 1.1 0 2.1c0 2.1 0.1 4.2 0.4 6.3-2.3-2.3-1.7-6.1-1.8-9.2q0-0.3 0-0.7-0.1-6.2-0.1-12.4 0-0.3 0-0.8-0.1-5.1 0.3-10.2z"/>
	<path class="s31" d="m10.8 109.8c0.3 2.2 0.3 2.2-0.4 3.2-1.2 1.2-2.4 2.1-4.1 2.6-0.9-0.1-1.9-0.2-2.8-0.4q-0.2 0.7-0.3 1.3 0-1.6 0-3.2 0.3 0 0.6 0c2.2-0.3 3.4-0.8 4.9-2.3 1.1-1.2 1.1-1.2 2.1-1.2z"/>
	<path class="s32" d="m144.8 17.8q0.4 0.1 0.9 0.3c0.3 0.7 0.3 0.7 0.5 1.5q0.1 0.5 0.3 1c0.1 0.5 0.1 0.5 0.2 1.1q0.1 0.5 0.3 1c0.5 2.4 0.9 4.7 0.9 7.1-1-0.8-1.1-1.5-1.3-2.7q-0.1-0.5-0.2-1.1-0.1-0.5-0.2-1.1-0.2-1.1-0.4-2.2-0.1-0.5-0.2-1.1-0.4-1.9-0.8-3.8z"/>
	<path class="s33" d="m148.6 50.2q0.4 0 0.9 0 0 1.4 0 2.8 0 0.4 0.1 0.9c0 1.5-0.1 3-0.4 4.5q-0.1 0-0.3 0c-0.2-2.7-0.4-5.5-0.3-8.2z"/>
	<path class="s34" d="m149.5 51.1q0.2 0 0.3 0 0.1 1.9 0.2 3.8 0.1 0.5 0.1 1.1 0 0.5 0.1 1 0 0.5 0 1c0 0.7 0 0.7-0.7 1.4-0.3-0.4-0.3-0.4-0.3-1.1q0-0.5 0-1 0.1-0.6 0.1-1.1 0-0.6 0-1.1 0.1-0.6 0.1-1.2 0.1-1.4 0.1-2.8z"/>
	<path class="s35" d="m53 114.3q0.3 0.1 0.7 0.3c-1.8 1.8-3.6 3.6-5.4 5.4q-0.4-0.2-0.7-0.3 0.6-0.7 1.2-1.4 0.4-0.4 0.7-0.8 0.3-0.4 0.7-0.7 0.3 0 0.6 0 0-0.3 0-0.6c0.5-0.5 0.5-0.5 1.1-1 0.3-0.3 0.3-0.3 0.6-0.5 0.3-0.2 0.3-0.2 0.5-0.4z"/>
	<path class="s36" d="m101 15.6q0.4 0.3 0.9 0.6c0.1 0.9 0 1.7 0 2.5q-0.5 0-0.9 0c-0.7-0.8-0.7-0.8-1.3-1.6q0.5-0.1 0.9-0.3c0.3-0.6 0.3-0.6 0.4-1.2z"/>
	<path class="s37" d="m143.5 12.1c0.6 0.3 0.6 0.3 1 1.1q0.1 0.5 0.3 1 0.2 0.5 0.3 1c0.3 0.9 0.3 1.6 0.3 2.6q-0.3 0-0.6 0-0.4-1.1-0.7-2.2-0.1-0.6-0.3-1.2c-0.3-1.1-0.3-1.1-0.3-2.3z"/>
	<path class="s38" d="m147 24.4c0.7 1.2 0.7 2.2 0.8 3.5q0.1 0.5 0.1 1.1 0 0.4 0 0.8c-0.4-0.3-0.4-0.3-0.9-0.9-0.1-1.1-0.1-1.1-0.1-2.3q0-0.6 0.1-1.2 0-0.5 0-1z"/>
	<path class="s39" d="m147 28.9c0.9 0.9 0.9 0.9 1 2-0.1 1.2-0.1 1.2-0.7 2.4q-0.2-2.2-0.3-4.4z"/>
	<path class="s40" d="m147.9 30.8q0.2 0 0.4 0 0.1 2 0.3 4.1-0.3 0-0.7 0c-0.6-1.2-0.4-2.8 0-4.1z"/>
	<path class="s41" d="m45.7 22.5q1 0 1.9 0-0.1 0.8-0.3 1.6-0.6-0.1-1.3-0.3-0.1-0.6-0.3-1.3z"/>
	<path class="s42" d="m64.1 21.9q0 0.2 0 0.3-1.2 0.3-2.5 0.7 0-0.4 0-0.7-0.3-0.1-0.6-0.3c1.1-0.4 1.9-0.2 3.1 0z"/>
</svg>